<?xml version="1.0" encoding="UTF-8" standalone="no"?>
<!-- Creator: CorelDRAW -->

<svg
   xml:space="preserve"
   width="169.17596mm"
   height="195.34758mm"
   viewBox="0 0 169.17596 195.34757"
   version="1.1"
   id="svg17"
   sodipodi:docname="AINS-KrAS_v006.inkscape.svg"
   inkscape:version="1.4.2 (ebf0e940d0, 2025-05-08)"
   style="clip-rule:evenodd;fill-rule:evenodd;image-rendering:optimizeQuality;shape-rendering:geometricPrecision;text-rendering:geometricPrecision"
   inkscape:export-filename="AINS-KrAS_v006_000150px.png"
   inkscape:export-xdpi="22.520929"
   inkscape:export-ydpi="22.520929"
   xmlns:inkscape="http://www.inkscape.org/namespaces/inkscape"
   xmlns:sodipodi="http://sodipodi.sourceforge.net/DTD/sodipodi-0.dtd"
   xmlns:xlink="http://www.w3.org/1999/xlink"
   xmlns="http://www.w3.org/2000/svg"
   xmlns:svg="http://www.w3.org/2000/svg"
   xmlns:rdf="http://www.w3.org/1999/02/22-rdf-syntax-ns#"
   xmlns:cc="http://creativecommons.org/ns#"
   xmlns:dc="http://purl.org/dc/elements/1.1/"><metadata
   id="metadata23"><rdf:RDF><cc:Work
       rdf:about=""><dc:format>image/svg+xml</dc:format><dc:type
         rdf:resource="http://purl.org/dc/dcmitype/StillImage" /></cc:Work></rdf:RDF></metadata><defs
   id="defs21"><marker
   style="overflow:visible"
   id="Scissors"
   refX="0"
   refY="0"
   orient="auto"
   inkscape:stockid="Scissors"
   markerWidth="1"
   markerHeight="1"
   viewBox="0 0 1 1"
   inkscape:isstock="true"
   inkscape:collect="always"
   preserveAspectRatio="xMidYMid"><path
     style="fill:context-stroke"
     d="M 9.0898857,-3.6061018 C 8.1198849,-4.7769976 6.3697607,-4.7358294 5.0623558,-4.2327734 l -8.2124046,3.0779029 c -2.3882933,-1.3067135 -4.7482873,-0.9325372 -4.7482873,-1.5687873 0,-0.4973164 0.4566662,-0.3883222 0.3883068,-1.6831941 -0.065635,-1.2432767 -1.3635771,-2.1630796 -2.5903987,-2.0816435 -1.227271,-0.00735 -2.499439,0.9331613 -2.510341,2.2300611 -0.09143,1.3063864 1.007209,2.5196896 2.306764,2.6052316 1.5223406,0.2266616 4.218258,-0.6955566 5.482945,1.57086006 -0.9422847,1.73825774 -2.6140244,1.74307674 -4.1255107,1.65607034 -1.2548743,-0.072235 -2.7620933,0.2873979 -3.3606483,1.5208605 -0.578367,1.1820862 -0.0112,2.8646022 1.316749,3.226412 1.3401912,0.4918277 3.1806689,-0.129711 3.4993722,-1.6707242 0.2456585,-1.187823 -0.5953659,-1.7459574 -0.2725074,-2.1771537 0.2436135,-0.32536 1.7907806,-0.1368452 4.5471053,-1.3748244 L 5.6763468,4.2330688 C 6.8000164,4.5467672 8.1730685,4.5362646 9.1684433,3.4313614 l -9.22008423,-3.48508362 z m -18.3078016,-1.900504 c 1.294559,0.7227998 1.1888392,2.6835702 -0.1564272,3.0632889 -1.2165179,0.423661 -2.7710269,-0.7589694 -2.3831779,-2.0774648 0.227148,-1.0818519 1.653387,-1.480632 2.5396051,-0.9858241 z m 0.056264,8.0173649 c 1.3508301,0.4988648 1.1214429,2.7844356 -0.2522207,3.091609 -0.9110594,0.3163391 -2.2135494,-0.1387976 -2.3056964,-1.2121394 -0.177609,-1.305055 1.356085,-2.4841482 2.5579171,-1.8794696 z"
     transform="scale(0.7)"
     id="path29" /></marker><marker
   markerWidth="0.52499998"
   markerHeight="0.99999994"
   refX="0"
   refY="0"
   orient="auto-start-reverse"
   id="marker12"
   viewBox="0 0 0.525 1"
   inkscape:stockid="Triangle cap"
   style="overflow:visible"
   preserveAspectRatio="xMidYMid"
   inkscape:isstock="true"
   inkscape:collect="always"><path
     style="fill:context-stroke;stroke-linecap:butt"
     d="M 0,-1 1,0 0,1 -0.05,0 Z"
     sodipodi:nodetypes="sssssscsss"
     transform="scale(0.5)"
     id="path12" /></marker><marker
   markerWidth="0.52499998"
   markerHeight="0.99999994"
   refX="0"
   refY="0"
   orient="auto-start-reverse"
   id="marker11"
   viewBox="0 0 0.525 1"
   inkscape:stockid="Triangle cap"
   style="overflow:visible"
   preserveAspectRatio="xMidYMid"
   inkscape:isstock="true"
   inkscape:collect="always"><path
     style="fill:context-stroke;stroke-linecap:butt"
     d="M 0,-1 1,0 0,1 -0.05,0 Z"
     sodipodi:nodetypes="sssssscsss"
     transform="scale(0.5)"
     id="path11" /></marker><marker
   markerWidth="0.52499998"
   markerHeight="0.99999994"
   refX="0"
   refY="0"
   orient="auto-start-reverse"
   id="marker10"
   viewBox="0 0 0.525 1"
   inkscape:stockid="Triangle cap"
   style="overflow:visible"
   preserveAspectRatio="xMidYMid"
   inkscape:isstock="true"
   inkscape:collect="always"><path
     style="fill:context-stroke;stroke-linecap:butt"
     d="M 0,-1 1,0 0,1 -0.05,0 Z"
     sodipodi:nodetypes="sssssscsss"
     transform="scale(0.5)"
     id="path10" /></marker><marker
   markerWidth="0.52499998"
   markerHeight="0.99999994"
   refX="0"
   refY="0"
   orient="auto-start-reverse"
   id="CapTriangle"
   viewBox="0 0 0.525 1"
   inkscape:stockid="Triangle cap"
   style="overflow:visible"
   preserveAspectRatio="xMidYMid"
   inkscape:isstock="true"
   inkscape:collect="always"><path
     style="fill:context-stroke;stroke-linecap:butt"
     d="M 0,-1 1,0 0,1 -0.05,0 Z"
     sodipodi:nodetypes="sssssscsss"
     transform="scale(0.5)"
     id="path61" /></marker><marker
   style="overflow:visible"
   id="marker9"
   refX="0"
   refY="0"
   orient="auto"
   inkscape:stockid="Stop"
   markerWidth="1"
   markerHeight="1"
   viewBox="0 0 1 1"
   inkscape:isstock="true"
   inkscape:collect="always"
   preserveAspectRatio="xMidYMid"><path
     style="fill:none;stroke:context-stroke;stroke-width:1"
     d="M 0,4 V -4"
     id="path9" /></marker><marker
   style="overflow:visible"
   id="marker8"
   refX="0"
   refY="0"
   orient="auto"
   inkscape:stockid="Stop"
   markerWidth="1"
   markerHeight="1"
   viewBox="0 0 1 1"
   inkscape:isstock="true"
   inkscape:collect="always"
   preserveAspectRatio="xMidYMid"><path
     style="fill:none;stroke:context-stroke;stroke-width:1"
     d="M 0,4 V -4"
     id="path8" /></marker><marker
   style="overflow:visible"
   id="Stop"
   refX="0"
   refY="0"
   orient="auto"
   inkscape:stockid="Stop"
   markerWidth="1"
   markerHeight="1"
   viewBox="0 0 1 1"
   inkscape:isstock="true"
   inkscape:collect="always"
   preserveAspectRatio="xMidYMid"><path
     style="fill:none;stroke:context-stroke;stroke-width:1"
     d="M 0,4 V -4"
     id="path23" /></marker>
  
  
  
 
   
   
  
    
    
    
   
    
    
    
   <g
   id="s"><g
     id="c"><path
       transform="rotate(18,3.1568758,-0.5)"
       d="M 0,0 V 1 H 0.5 Z"
       id="t" /><use
       id="use1574"
       transform="scale(-1,1)"
       xlink:href="#t"
       x="0"
       y="0"
       width="100%"
       height="100%" /></g><g
     id="a"><use
       id="use1577"
       transform="rotate(72)"
       xlink:href="#c"
       x="0"
       y="0"
       width="100%"
       height="100%" /><use
       id="use1579"
       transform="rotate(144)"
       xlink:href="#c"
       x="0"
       y="0"
       width="100%"
       height="100%" /></g><use
     id="use1582"
     transform="scale(-1,1)"
     xlink:href="#a"
     x="0"
     y="0"
     width="100%"
     height="100%" /></g></defs><sodipodi:namedview
   pagecolor="#ffffff"
   bordercolor="#666666"
   borderopacity="1"
   objecttolerance="10"
   gridtolerance="10"
   guidetolerance="10"
   inkscape:pageopacity="0"
   inkscape:pageshadow="2"
   inkscape:window-width="2743"
   inkscape:window-height="1483"
   id="namedview19"
   showgrid="false"
   inkscape:zoom="0.5"
   inkscape:cx="1010"
   inkscape:cy="225"
   inkscape:window-x="0"
   inkscape:window-y="0"
   inkscape:window-maximized="1"
   inkscape:current-layer="svg17"
   fit-margin-top="0"
   fit-margin-left="0"
   fit-margin-right="0"
   fit-margin-bottom="0"
   inkscape:pagecheckerboard="0"
   inkscape:document-units="mm"
   inkscape:showpageshadow="2"
   inkscape:deskcolor="#d1d1d1" />
 
<path
   style="fill:#aa0000;fill-opacity:1;stroke:#aa0000;stroke-width:1;stroke-dasharray:none;stroke-opacity:1"
   d="M 2.8257858,95.059076 V 144.9182 L 84.485999,192.06475 85.047265,99.736295 66.903655,91.972115 38.087774,75.335258 C 2.8257859,95.152622 2.8257858,95.059076 2.8257858,95.059076 Z"
   id="path1"
   sodipodi:nodetypes="ccccccc" /><path
   style="fill:#008000;fill-opacity:1;stroke:#008000;stroke-width:0;stroke-dasharray:none;stroke-opacity:1"
   d="M 166.15419,93.562368 V 144.45048 L 84.551559,191.41614 84.562907,99.642751 103.2924,91.785026 132.6587,74.830387"
   id="path2"
   sodipodi:nodetypes="cccccc" /><path
   style="fill:#2a308a;fill-opacity:1;stroke:#2a308a;stroke-width:2;stroke-dasharray:none;stroke-opacity:1"
   d="M 84.540533,3.2231857 166.25287,50.399825 165.87869,101.042 132.48687,83.518052 c -30.95625,17.462498 -31.33994,17.676528 -31.33994,17.676528 l -16.980573,1.69318"
   id="path3"
   sodipodi:nodetypes="cccccc" /><path
   style="fill:#f9f9f9;fill-opacity:1;stroke:#f9f9f9;stroke-width:2;stroke-dasharray:none;stroke-opacity:1"
   d="M 84.199428,106.36593 38.281898,85.054481 3.1064189,104.69414 V 50.531975 L 84.594679,3.4847056"
   id="path4"
   sodipodi:nodetypes="ccccc" /><path
   inkscape:connector-curvature="0"
   d="m 297.1965,34.831251 v 39.41903 l -34.1508,-19.72275 -19.06092,33.01245 34.15081,19.722749 -34.15081,19.69627 19.06092,33.01243 34.1508,-19.72275 v 39.44551 h 38.12183 v -39.41904 l 34.12435,19.69628 19.06091,-33.01243 -34.1508,-19.69627 34.1508,-19.722749 -19.06091,-33.01245 -34.12435,19.69628 v -39.39256 z"
   id="rect14795-2"
   style="clip-rule:evenodd;opacity:1;fill:#003399;fill-opacity:1;fill-rule:nonzero;stroke:#ffffff;stroke-width:1.05833;stroke-linecap:round;stroke-linejoin:miter;stroke-miterlimit:4;stroke-dasharray:none;stroke-dashoffset:0;stroke-opacity:1;image-rendering:optimizeQuality;shape-rendering:geometricPrecision;text-rendering:geometricPrecision"
   inkscape:export-xdpi="100.10308"
   inkscape:export-ydpi="100.10308" /><rect
   style="clip-rule:evenodd;opacity:1;fill:none;fill-opacity:1;fill-rule:evenodd;stroke:#ffffff;stroke-width:0;stroke-miterlimit:4;stroke-dasharray:none;stroke-opacity:1;image-rendering:optimizeQuality;shape-rendering:geometricPrecision;text-rendering:geometricPrecision"
   id="rect841-1"
   width="152.08463"
   height="50.69492"
   x="8.1962824"
   y="73.424423" /><g
   id="g1"
   transform="translate(0.20944869,4.5491562)"><path
     inkscape:connector-curvature="0"
     d="m 78.931272,39.725717 c -0.09163,-2.763298 2.4118,-5.340915 5.08721,-5.340915 1.914109,0 4.271072,1.456017 4.215677,3.883282 -0.669377,29.331745 -2.45153,88.837666 -3.12485,118.449246 -0.02036,0.89544 -1.148086,0.49858 -1.189006,-0.41996 C 82.611942,126.92899 79.916775,69.445091 78.931272,39.725717 Z"
     id="path2161-7"
     style="clip-rule:evenodd;fill:#ffffff;fill-opacity:1;fill-rule:evenodd;stroke:#003399;stroke-width:0.79375;stroke-linecap:butt;stroke-linejoin:miter;stroke-miterlimit:4;stroke-dasharray:none;stroke-opacity:1;image-rendering:optimizeQuality;shape-rendering:geometricPrecision;text-rendering:geometricPrecision" /><path
     inkscape:connector-curvature="0"
     d="m 80.218763,43.695483 c 2.122644,0 3.075766,1.290685 4.388906,2.426252 1.26846,1.096925 2.263135,2.100532 2.263135,3.179702 0,1.134136 -0.832522,0.794299 -1.714655,1.210837 -0.46468,0.219418 -0.423214,0.693579 -1.182201,0.693579 -1.82439,0 -2.550763,-1.716657 -5.042676,-1.716657 -2.05359,0 -4.720804,2.460755 -4.720804,6.973915 0,6.816258 2.628629,9.870771 5.740068,12.231173 l 0.321873,8.100465 c -3.326021,-1.39478 -11.9093,-8.95873 -11.9093,-19.47331 0,-9.150657 5.941085,-13.625956 11.855654,-13.625956 z"
     id="path4102-9"
     style="clip-rule:evenodd;fill:#ffffff;fill-opacity:1;fill-rule:evenodd;stroke:#003399;stroke-width:0.79375;stroke-linecap:butt;stroke-linejoin:miter;stroke-miterlimit:4;stroke-dasharray:none;stroke-opacity:1;image-rendering:optimizeQuality;shape-rendering:geometricPrecision;text-rendering:geometricPrecision" /><path
     inkscape:connector-curvature="0"
     d="m 81.023447,45.975416 c 1.517493,-0.240561 1.364854,0.671099 2.038528,1.260669 -1.557432,0.04629 -1.902501,-0.606959 -2.038528,-1.260669 z"
     id="path5075-2"
     style="clip-rule:evenodd;fill:#003399;fill-opacity:1;fill-rule:evenodd;stroke:none;stroke-width:0.847152px;stroke-linecap:butt;stroke-linejoin:miter;stroke-opacity:1;image-rendering:optimizeQuality;shape-rendering:geometricPrecision;text-rendering:geometricPrecision" /><path
     inkscape:connector-curvature="0"
     d="m 87.407262,72.07395 -0.214583,7.724949 c 0,4.72241 -12.499401,13.00772 -12.499401,21.458201 0,6.50787 5.230436,10.67546 7.161674,11.64107 l -0.241406,-6.81298 c 0,0 -2.360401,-1.59182 -2.360401,-4.29164 0,-3.820371 14.376989,-13.659601 14.376989,-21.189961 0,-5.33935 -3.647886,-7.33156 -6.222872,-8.529639 z"
     id="path8971-0"
     style="clip-rule:evenodd;fill:#ffffff;fill-opacity:1;fill-rule:evenodd;stroke:#003399;stroke-width:0.79375;stroke-linecap:butt;stroke-linejoin:miter;stroke-miterlimit:4;stroke-dasharray:none;stroke-opacity:1;image-rendering:optimizeQuality;shape-rendering:geometricPrecision;text-rendering:geometricPrecision" /><path
     inkscape:connector-curvature="0"
     d="m 86.414824,109.8672 c 0,0 4.908558,3.2452 4.908558,7.32261 0,3.48814 -2.674864,6.67906 -5.834757,9.97888 -3.691393,3.85485 -4.470918,8.68051 -2.292536,13.73242 l 0.187759,4.1307 c -1.582542,-1.28749 -4.077058,-5.30886 -4.077058,-12.01659 0,-8.07406 6.920271,-10.50309 6.920271,-17.9444 z"
     id="path11880-2"
     style="clip-rule:evenodd;fill:#ffffff;fill-opacity:1;fill-rule:evenodd;stroke:#003399;stroke-width:0.79375;stroke-linecap:butt;stroke-linejoin:miter;stroke-miterlimit:4;stroke-dasharray:none;stroke-opacity:1;image-rendering:optimizeQuality;shape-rendering:geometricPrecision;text-rendering:geometricPrecision" /><path
     inkscape:connector-curvature="0"
     d="m 85.449198,143.50292 c 0,0 2.27994,1.22663 2.27994,4.42575 0,3.01133 -3.770486,5.76116 -4.34529,6.16924 -0.55683,0.39531 -0.770246,-0.11951 -0.321873,-0.53646 0.462951,-0.43051 2.360402,-2.97332 2.360402,-5.90101 z"
     id="path12851-3"
     style="clip-rule:evenodd;fill:#ffffff;fill-rule:evenodd;stroke:#003399;stroke-width:0.79375;stroke-linecap:butt;stroke-linejoin:miter;stroke-miterlimit:4;stroke-dasharray:none;stroke-opacity:1;image-rendering:optimizeQuality;shape-rendering:geometricPrecision;text-rendering:geometricPrecision" /></g><path
   style="fill:#000000;stroke-width:0.264583"
   d="M 20.786297,118.81933 51.74947,118.44516"
   id="path6" /><path
   style="fill:#f9f9f9;fill-opacity:1;stroke:#000000;stroke-width:0;stroke-dasharray:none;stroke-opacity:1"
   d="m 2.9193302,82.430593 c 0,21.936147 0,21.936147 0,21.936147"
   id="path14" /><g
   id="g18"><circle
     style="fill:#f2dd1e;fill-opacity:1;stroke:#000000;stroke-width:6;stroke-linecap:butt;stroke-linejoin:bevel;stroke-dasharray:none;stroke-opacity:1"
     id="path16"
     cx="84.534378"
     cy="93.397926"
     r="15.137015" /><path
     id="path828"
     d="m 84.658231,102.13394 c -0.143851,-0.16335 -0.40111,-1.2119 -0.403073,-1.64275 -10e-4,-0.24553 -0.0408,-0.30949 -0.191859,-0.30949 -0.244474,0 -0.241787,-0.17292 0.0136,-0.873304 0.264672,-0.725892 0.208089,-0.755443 -0.43834,-0.228933 -0.294927,0.240233 -0.673536,0.495131 -0.841346,0.566444 -0.419139,0.17812 -0.828814,0.581913 -0.828814,0.816923 0,0.27642 -0.253092,0.24253 -0.324876,-0.0434 -0.03729,-0.14842 -0.0022,-0.32664 0.0931,-0.471934 0.280958,-0.428794 -0.179774,-0.547133 -1.101359,-0.282899 -0.238036,0.06815 -0.238036,0.06815 0.03487,-0.223927 0.245329,-0.262633 0.346336,-0.297829 0.99986,-0.34838 1.916299,-0.148235 2.480626,-0.662805 2.486306,-2.267116 0.0022,-0.756847 -0.0749,-0.790245 -0.494638,-0.212898 -0.258181,0.355161 -0.354791,0.422415 -0.55586,0.386974 -0.293624,-0.05177 -0.794962,0.706331 -0.59761,0.903685 0.07556,0.07555 0.123368,0.0761 0.169282,0.0022 0.204722,-0.331249 0.491644,0.04584 0.320576,0.421333 -0.127106,0.278955 -0.235459,0.295742 -0.480086,0.07435 -0.169873,-0.15372 -0.215645,-0.15031 -0.84239,0.06305 -0.552976,0.188239 -0.717684,0.208769 -0.994342,0.123848 -0.182374,-0.05592 -0.427999,-0.07767 -0.545838,-0.04808 -0.227247,0.05687 -0.193801,-0.0052 0.275122,-0.51709 0.05966,-0.06503 0.401769,-0.148325 0.760211,-0.185038 0.358442,-0.03673 0.699218,-0.114286 0.757283,-0.172338 0.24796,-0.247963 0.577168,-1.101479 0.424851,-1.101479 -0.198549,0 -0.150397,-0.289691 0.112049,-0.674026 0.866262,-1.268565 1.115923,-2.275476 0.708419,-2.857259 -0.125812,-0.179652 -0.141822,-0.139334 -0.199064,0.501488 -0.190236,2.129896 -0.598628,2.25897 -0.773654,0.24452 -0.08707,-1.002092 -0.192847,-0.927726 -0.270913,0.190455 -0.09497,1.35987 -0.482104,2.499604 -0.849122,2.499604 -0.199283,0 -0.200116,-0.646054 -0.0032,-2.832883 0.06513,-0.724761 -0.08169,-0.99508 -0.187188,-0.344723 -0.19641,1.210348 -1.548285,3.76228 -1.917913,3.620434 -0.204656,-0.0785 -0.191245,-0.160152 0.235767,-1.435245 0.209098,-0.624387 0.380187,-1.190658 0.380187,-1.258377 0,-0.0677 0.06503,-0.314794 0.144618,-0.549059 0.461446,-1.359127 0.342729,-1.556767 -0.362992,-0.604365 -1.20911,1.631718 -2.189856,2.220843 -1.432343,0.860386 0.139574,-0.250632 0.335786,-0.602315 0.43607,-0.781526 0.100224,-0.1792 0.350327,-0.573228 0.555663,-0.875589 0.205325,-0.302366 0.373334,-0.575586 0.373334,-0.607163 0,-0.06298 -0.874245,0.514136 -0.954175,0.629865 -0.06361,0.09213 -0.540552,0.274105 -0.718442,0.274105 -0.241063,0 -0.151187,-0.137424 0.577542,-0.882868 0.937396,-0.958912 0.967662,-1.207258 0.100443,-0.823623 -0.745867,0.329937 -0.859231,0.154823 -0.247894,-0.38296 0.501755,-0.441368 0.511274,-0.458708 0.285673,-0.520027 -1.141649,-0.310305 -1.283394,-0.505866 -0.400026,-0.551941 0.547538,-0.02854 0.547538,-0.02854 0.09519,-0.294433 -0.638324,-0.375218 -0.586444,-0.642089 0.0886,-0.455704 0.460217,0.127073 0.478234,0.09098 0.145858,-0.292066 -0.541211,-0.623724 -0.424545,-1.166825 0.137249,-0.639035 0.126864,0.119187 0.424445,0.236917 0.714834,0.282828 0.517338,0.08178 0.776812,0.266865 0.885802,0.631857 0.06755,0.226354 -0.249255,0.326303 -0.377347,0.119021 -0.159872,-0.258676 -0.333286,-0.08145 -0.333286,0.340605 0,0.797061 0.26578,0.948485 1.793054,1.021536 2.0951,0.100234 2.389798,-0.0076 2.2595,-0.827297 -0.120021,-0.755021 -0.534049,-1.184497 -0.676255,-0.701487 -0.06273,0.213113 -0.157832,0.318954 -0.305357,0.339908 -0.250065,0.03552 -0.272041,-0.09178 -0.0693,-0.401256 0.327803,-0.500276 0.0522,-0.609126 -0.978191,-0.386426 -0.221291,0.04782 -0.30948,0.03258 -0.30948,-0.05356 0,-0.06624 -0.075,-0.177908 -0.166626,-0.248155 -0.137469,-0.105349 -0.143653,-0.142847 -0.03542,-0.214092 0.169478,-0.111565 0.05406,-0.298127 -0.184457,-0.298127 -0.101656,0 -0.184808,-0.05927 -0.184808,-0.131735 0,-0.162756 0.325139,-0.255553 0.660421,-0.188496 0.351533,0.07032 0.577222,-0.324234 0.387863,-0.678041 -0.188295,-0.35172 -0.426968,-0.382607 -0.793985,-0.10267 -0.357752,0.272869 -0.499102,0.299192 -0.671157,0.124971 -0.270649,-0.274044 -0.242587,-0.436603 0.134146,-0.776949 0.689163,-0.622618 1.08433,-0.581442 1.852622,0.193015 0.518807,0.522961 0.939371,0.604391 0.764213,0.147985 -0.06141,-0.159959 0.482061,-0.778125 0.684075,-0.778125 0.06832,0 0.124155,-0.04286 0.124155,-0.09522 0,-0.10989 0.349198,-0.13085 0.396768,-0.0239 0.01744,0.03927 0.160288,0.13704 0.317407,0.217249 0.15712,0.08021 0.389268,0.305176 0.51588,0.499921 0.296452,0.45597 0.516636,0.449382 0.81572,-0.0244 0.53701,-0.850666 1.598191,-0.844403 2.056598,0.0122 0.24864,0.464579 -0.322419,0.689649 -0.808713,0.318737 -0.393752,-0.300332 -0.400243,-0.299608 -0.589165,0.06575 -0.220139,0.425708 0.08214,0.691836 0.706051,0.621513 0.688734,-0.07762 1.050433,0.118996 0.561102,0.305031 -0.306518,0.116535 -0.528566,0.38846 -0.317221,0.38846 0.217542,0 0.192539,0.165528 -0.03597,0.238064 -0.104724,0.03327 -0.190434,0.123943 -0.190434,0.201593 0,0.116175 -0.100882,0.129727 -0.569677,0.07669 -0.69037,-0.07811 -0.893743,0.131113 -0.445128,0.457907 0.139694,0.10176 0.229823,0.224131 0.200281,0.271949 -0.09409,0.152216 -0.416584,0.09371 -0.623345,-0.113046 -0.366722,-0.36672 -0.576807,0.482916 -0.272437,1.101801 0.334295,0.67973 3.154986,0.668998 3.923157,-0.01481 0.656628,-0.584608 0.558109,-1.572676 -0.114911,-1.152375 -0.233211,0.145669 -0.284565,0.0934 -0.223025,-0.226903 0.05417,-0.281764 0.2996,-0.408841 0.971754,-0.503072 0.230174,-0.03228 0.536726,-0.142873 0.681257,-0.245788 0.510582,-0.363566 0.599417,-0.09641 0.169685,0.510291 -0.190478,0.26891 -0.190478,0.26891 0.246097,0.203435 0.517206,-0.07755 0.559524,0.0262 0.150879,0.370049 -0.36217,0.304746 -0.36058,0.311573 0.08981,0.383581 0.695491,0.111229 0.614594,0.409944 -0.140243,0.517922 -0.571662,0.08179 -0.641504,0.249054 -0.168688,0.404047 1.010935,0.331394 1.098135,0.930114 0.09848,0.67638 -0.817474,-0.207495 -0.671902,0.236224 0.477773,1.456352 0.379694,0.402969 0.690357,0.772345 0.690357,0.820828 0,0.174706 -0.394617,0.08312 -0.645934,-0.149922 -0.141197,-0.130923 -0.307451,-0.238065 -0.369441,-0.238065 -0.06195,0 -0.298108,-0.141151 -0.524696,-0.313665 -0.818922,-0.623469 -0.862731,-0.54732 -0.190839,0.331778 0.701159,0.917393 1.210338,1.872847 1.034105,1.940473 -0.353431,0.135606 -1.449625,-0.679633 -1.924952,-1.431613 -0.252096,-0.398834 -0.425368,-0.542961 -0.425368,-0.35381 0,0.136513 0.302276,1.108539 0.375528,1.207568 0.03871,0.05238 0.13761,0.266629 0.219734,0.476117 0.08214,0.20948 0.320215,0.74512 0.529127,1.190287 0.459437,0.979021 0.543458,1.237902 0.401745,1.237902 -0.128574,0 -0.688537,-0.384655 -0.790257,-0.542832 -0.04046,-0.06288 -0.136853,-0.177647 -0.21424,-0.255064 -0.07742,-0.07738 -0.141438,-0.175925 -0.14225,-0.218944 -5.7e-4,-0.04303 -0.128936,-0.228194 -0.284653,-0.411502 -0.155704,-0.18331 -0.325785,-0.384327 -0.377906,-0.44672 -0.05209,-0.06237 -0.164258,-0.29807 -0.249177,-0.523724 -0.236382,-0.628201 -0.651276,-1.502703 -0.713595,-1.504105 -0.09782,-0.0021 0.02029,1.545916 0.170673,2.236495 0.289522,1.32989 0.250341,1.628286 -0.13442,1.023649 -0.09167,-0.144019 -0.193724,-0.283291 -0.22683,-0.309476 -0.03311,-0.0262 -0.118037,-0.219016 -0.188678,-0.428504 -0.07073,-0.209479 -0.159872,-0.425055 -0.198176,-0.479026 -0.03838,-0.05398 -0.141964,-0.493194 -0.230306,-0.976039 -0.280288,-1.53205 -0.429918,-0.906209 -0.173744,0.726731 0.05758,0.366975 0.04529,0.410519 -0.107356,0.380892 -0.337025,-0.06542 -0.793437,-1.244258 -0.80562,-2.080748 -0.0066,-0.441207 -0.150803,-0.222315 -0.28883,0.437907 -0.09946,0.475741 0.067,1.324058 0.287876,1.466556 0.167416,0.108026 0.888599,1.655547 0.787275,1.689324 -0.128345,0.04279 0.136152,0.593699 0.354429,0.738199 0.340775,0.225613 0.900024,0.336129 1.120801,0.221502 0.253005,-0.131377 0.316289,-0.07566 0.487291,0.429052 0.131997,0.389641 0.09978,0.511759 -0.10198,0.386308 -0.06898,-0.04288 -0.414609,-0.0647 -0.768117,-0.04858 -0.418273,0.01908 -0.642766,-0.0066 -0.642766,-0.07446 0,-0.2651 -0.646527,-0.107794 -0.747512,0.181903 -0.166144,0.476655 -0.395156,0.306594 -0.395156,-0.293459 0,-0.232926 0.03849,-0.277886 0.238059,-0.277886 0.318154,0 0.31471,-0.275194 -0.0076,-0.659001 -0.181989,-0.216291 -0.301046,-0.278975 -0.45595,-0.240099 -0.169522,0.04257 -0.24058,-0.0122 -0.371108,-0.285922 -0.267874,-0.561743 -0.389804,-0.430768 -0.327507,0.351824 0.119933,1.506497 0.445127,1.785437 2.081611,1.785437 0.943747,0 1.121251,0.02467 1.256582,0.174148 0.242489,0.267944 0.205204,0.288087 -0.500945,0.270641 -0.78917,-0.01965 -0.82425,0.0052 -0.614616,0.445526 0.131876,0.276521 0.142228,0.388935 0.05373,0.583135 -0.148325,0.3255 -0.24341,0.30274 -0.386339,-0.0925 -0.11478,-0.317393 -0.630023,-0.809606 -0.84751,-0.809606 -0.155113,0 -0.695336,-0.306212 -0.969319,-0.549444 -0.372775,-0.330913 -0.358497,-0.05571 0.03805,0.731589 0.339855,0.674861 0.339855,0.674861 0.04869,0.674861 -0.286363,0 -0.289938,0.005 -0.215962,0.35708 0.192297,0.91297 -0.08981,1.97456 -0.423887,1.59516 z M 84.307443,87.778895 c 0.03651,-0.117824 0.14736,-0.329078 0.246196,-0.469426 0.111776,-0.158718 0.143039,-0.277827 0.08268,-0.315097 -0.31085,-0.192106 -0.08981,-0.429618 0.402985,-0.432945 0.481524,-0.003 0.491163,-0.0082 0.261855,-0.139479 -0.337805,-0.193107 -2.084265,-0.195355 -2.338576,-0.0028 -0.171791,0.129942 -0.155748,0.140027 0.227433,0.142823 0.407515,0.0028 0.411551,0.0063 0.349911,0.286942 -0.109439,0.498481 0.625078,1.388785 0.767469,0.930189 z"
     style="clip-rule:evenodd;fill:#000000;fill-opacity:1;fill-rule:evenodd;stroke-width:0.0952227;image-rendering:optimizeQuality;shape-rendering:geometricPrecision;text-rendering:geometricPrecision" /></g><g
   id="g16"><path
     id="path5203-3"
     d="m 131.69596,83.318285 34.27157,18.974635"
     style="color:#000000;clip-rule:evenodd;display:inline;overflow:visible;visibility:visible;fill:#000000;fill-opacity:1;fill-rule:nonzero;stroke:#000000;stroke-width:6.13104;stroke-linecap:round;stroke-linejoin:miter;stroke-miterlimit:4;stroke-dasharray:none;stroke-dashoffset:0;stroke-opacity:1;marker:none;marker-start:none;marker-mid:none;marker-end:none;image-rendering:optimizeQuality;shape-rendering:geometricPrecision;text-rendering:geometricPrecision;enable-background:accumulate"
     inkscape:connector-curvature="0" /><path
     id="path5195-6"
     d="M 132.10317,83.029771 92.584082,106.22304"
     style="color:#000000;clip-rule:evenodd;display:inline;overflow:visible;visibility:visible;fill:none;fill-opacity:1;fill-rule:nonzero;stroke:#000000;stroke-width:6;stroke-linecap:butt;stroke-linejoin:miter;stroke-miterlimit:4;stroke-dasharray:none;stroke-dashoffset:0;stroke-opacity:1;marker:none;marker-start:none;marker-mid:none;marker-end:none;image-rendering:optimizeQuality;shape-rendering:geometricPrecision;text-rendering:geometricPrecision;enable-background:accumulate"
     inkscape:connector-curvature="0" /></g><g
   id="g17"><path
     id="path5205-5"
     d="M 38.271149,84.239756 4.5544334,104.48836"
     style="color:#000000;clip-rule:evenodd;display:inline;overflow:visible;visibility:visible;fill:none;fill-opacity:1;fill-rule:nonzero;stroke:#000000;stroke-width:6;stroke-linecap:round;stroke-linejoin:bevel;stroke-miterlimit:4;stroke-dasharray:none;stroke-dashoffset:0;stroke-opacity:1;marker:none;marker-mid:none;image-rendering:optimizeQuality;shape-rendering:geometricPrecision;text-rendering:geometricPrecision;enable-background:accumulate"
     inkscape:connector-curvature="0" /><path
     id="path5191-3"
     d="M 38.04763,84.125116 76.11974,105.9829"
     style="color:#000000;clip-rule:evenodd;display:inline;overflow:visible;visibility:visible;fill:none;fill-opacity:1;fill-rule:nonzero;stroke:#000000;stroke-width:6;stroke-linecap:butt;stroke-linejoin:miter;stroke-miterlimit:4;stroke-dasharray:none;stroke-dashoffset:0;stroke-opacity:1;marker:none;marker-start:none;marker-mid:none;marker-end:none;image-rendering:optimizeQuality;shape-rendering:geometricPrecision;text-rendering:geometricPrecision;enable-background:accumulate"
     inkscape:connector-curvature="0" /></g><polygon
   points="183,2.230855 543,2.230855 723,314 543,625.76914 183,625.76914 3,314 "
   fill="#ffffff"
   stroke="#000000"
   stroke-width="4"
   id="polygon2"
   transform="matrix(0,0.26169358,-0.26169358,0,166.75977,2.6790209)"
   style="fill:#ffff00;fill-opacity:0;stroke:#f2dd1e;stroke-width:22.9276;stroke-dasharray:none;stroke-opacity:1" /></svg>
